<?xml version="1.0" encoding="iso-8859-1"?>
<!-- Generator: Adobe Illustrator 18.0.0, SVG Export Plug-In . SVG Version: 6.00 Build 0)  -->
<!DOCTYPE svg PUBLIC "-//W3C//DTD SVG 1.1//EN" "http://www.w3.org/Graphics/SVG/1.1/DTD/svg11.dtd">
<svg version="1.1" id="Capa_1" xmlns="http://www.w3.org/2000/svg" xmlns:xlink="http://www.w3.org/1999/xlink" x="0px" y="0px"
	 viewBox="0 0 60 60" style="enable-background:new 0 0 60 60;" xml:space="preserve">
<g>
	<g>
		<path style="fill:#7383BF;" d="M4.43,25.188c0.075,0.018,0.149,0.025,0.224,0.025c0.456,0,0.868-0.314,0.974-0.777
			c0.144-0.628,0.312-1.253,0.499-1.858c0.164-0.527-0.132-1.087-0.659-1.251c-0.529-0.164-1.088,0.132-1.251,0.659
			c-0.202,0.653-0.384,1.327-0.538,2.003C3.555,24.528,3.891,25.064,4.43,25.188z"/>
		<path style="fill:#7383BF;" d="M11.899,11.317c-0.397-0.381-1.032-0.369-1.414,0.031c-0.476,0.497-0.939,1.02-1.377,1.555
			c-0.351,0.427-0.287,1.057,0.14,1.407c0.186,0.152,0.41,0.227,0.633,0.227c0.29,0,0.577-0.125,0.774-0.366
			c0.405-0.495,0.835-0.979,1.275-1.439C12.312,12.332,12.299,11.699,11.899,11.317z"/>
		<path style="fill:#7383BF;" d="M16.65,7.668c-0.302-0.462-0.92-0.592-1.384-0.291c-0.576,0.376-1.146,0.78-1.693,1.201
			c-0.438,0.336-0.521,0.964-0.184,1.402c0.197,0.257,0.493,0.391,0.794,0.391c0.212,0,0.427-0.067,0.608-0.207
			c0.507-0.389,1.034-0.763,1.568-1.112C16.822,8.75,16.953,8.13,16.65,7.668z"/>
		<path style="fill:#7383BF;" d="M26.886,3.184C26.201,3.263,25.511,3.37,24.834,3.5c-0.542,0.105-0.897,0.63-0.791,1.172
			c0.093,0.478,0.511,0.81,0.98,0.81c0.063,0,0.127-0.006,0.191-0.018c0.626-0.122,1.266-0.22,1.899-0.293
			c0.549-0.063,0.942-0.559,0.879-1.108C27.93,3.515,27.443,3.123,26.886,3.184z"/>
		<path style="fill:#7383BF;" d="M22.111,5.205c-0.187-0.52-0.759-0.79-1.28-0.601c-0.647,0.234-1.295,0.497-1.924,0.781
			c-0.504,0.227-0.728,0.819-0.5,1.323c0.167,0.37,0.53,0.589,0.912,0.589c0.137,0,0.277-0.029,0.41-0.089
			c0.582-0.263,1.182-0.505,1.781-0.722C22.03,6.297,22.299,5.724,22.111,5.205z"/>
		<path style="fill:#7383BF;" d="M6.207,19.469c0.142,0.069,0.291,0.102,0.438,0.102c0.37,0,0.726-0.206,0.899-0.56
			c0.28-0.573,0.587-1.142,0.911-1.691c0.28-0.476,0.122-1.089-0.354-1.37c-0.476-0.282-1.089-0.123-1.369,0.353
			c-0.351,0.594-0.682,1.209-0.985,1.828C5.506,18.627,5.711,19.227,6.207,19.469z"/>
		<path style="fill:#7383BF;" d="M38.673,5.468c0.164-0.527-0.131-1.088-0.658-1.251c-0.658-0.204-1.333-0.385-2.006-0.538
			c-0.537-0.125-1.075,0.215-1.197,0.753s0.216,1.074,0.754,1.197c0.623,0.142,1.248,0.309,1.855,0.498
			c0.099,0.031,0.199,0.045,0.297,0.045C38.145,6.172,38.54,5.896,38.673,5.468z"/>
		<path style="fill:#7383BF;" d="M52.793,19.729c0.264,0.586,0.507,1.186,0.723,1.783c0.147,0.407,0.531,0.661,0.94,0.661
			c0.113,0,0.228-0.02,0.34-0.06c0.52-0.188,0.788-0.761,0.601-1.28c-0.233-0.645-0.495-1.292-0.779-1.924
			c-0.228-0.503-0.819-0.729-1.322-0.502C52.791,18.633,52.566,19.225,52.793,19.729z"/>
		<path style="fill:#7383BF;" d="M50.947,16.36c0.191,0.293,0.512,0.453,0.838,0.453c0.188,0,0.377-0.053,0.546-0.163
			c0.463-0.302,0.593-0.922,0.29-1.384c-0.376-0.576-0.779-1.146-1.2-1.693c-0.334-0.437-0.961-0.521-1.401-0.185
			c-0.438,0.336-0.521,0.964-0.185,1.402C50.224,15.299,50.599,15.827,50.947,16.36z"/>
		<path style="fill:#7383BF;" d="M48.684,11.9c0.382-0.399,0.367-1.032-0.031-1.414c-0.499-0.477-1.022-0.94-1.555-1.376
			c-0.43-0.35-1.059-0.287-1.407,0.141c-0.351,0.427-0.287,1.057,0.14,1.407c0.493,0.404,0.978,0.832,1.439,1.274
			c0.194,0.186,0.442,0.277,0.691,0.277C48.225,12.208,48.487,12.105,48.684,11.9z"/>
		<path style="fill:#7383BF;" d="M56.5,24.834c-0.104-0.542-0.624-0.896-1.172-0.792c-0.542,0.105-0.896,0.63-0.791,1.172
			c0.121,0.626,0.219,1.265,0.292,1.899c0.058,0.51,0.49,0.886,0.992,0.886c0.038,0,0.076-0.002,0.114-0.006
			c0.549-0.063,0.943-0.559,0.88-1.107C56.737,26.201,56.631,25.511,56.5,24.834z"/>
		<path style="fill:#7383BF;" d="M44.05,8.103c0.28-0.476,0.122-1.089-0.354-1.369c-0.593-0.349-1.207-0.681-1.827-0.985
			c-0.497-0.246-1.096-0.039-1.338,0.457c-0.243,0.496-0.039,1.095,0.457,1.338c0.574,0.282,1.144,0.589,1.692,0.913
			c0.159,0.094,0.334,0.139,0.507,0.139C43.53,8.595,43.863,8.419,44.05,8.103z"/>
		<path style="fill:#7383BF;" d="M40.271,52.793c-0.582,0.263-1.182,0.505-1.781,0.722c-0.52,0.188-0.788,0.761-0.601,1.28
			c0.146,0.408,0.531,0.661,0.94,0.661c0.112,0,0.228-0.02,0.34-0.06c0.647-0.234,1.295-0.497,1.924-0.781
			c0.504-0.227,0.728-0.819,0.5-1.323C41.365,52.791,40.772,52.563,40.271,52.793z"/>
		<path style="fill:#7383BF;" d="M49.345,45.83c-0.405,0.495-0.835,0.979-1.275,1.439c-0.382,0.399-0.368,1.032,0.031,1.414
			c0.193,0.186,0.442,0.278,0.691,0.278c0.263,0,0.526-0.104,0.723-0.309c0.476-0.497,0.939-1.02,1.377-1.555
			c0.351-0.427,0.287-1.057-0.14-1.407C50.324,45.339,49.694,45.403,49.345,45.83z"/>
		<path style="fill:#7383BF;" d="M34.785,54.536c-0.626,0.122-1.266,0.22-1.899,0.293c-0.549,0.063-0.942,0.559-0.879,1.108
			c0.059,0.51,0.491,0.886,0.992,0.886c0.038,0,0.076-0.002,0.115-0.006c0.685-0.079,1.375-0.186,2.052-0.316
			c0.542-0.105,0.896-0.63,0.791-1.172C35.852,54.785,35.327,54.434,34.785,54.536z"/>
		<path style="fill:#7383BF;" d="M53.793,40.531c-0.497-0.243-1.095-0.038-1.338,0.458c-0.28,0.573-0.587,1.142-0.911,1.691
			c-0.28,0.476-0.122,1.089,0.354,1.37c0.159,0.094,0.334,0.139,0.507,0.139c0.343,0,0.676-0.176,0.862-0.492
			c0.351-0.594,0.682-1.209,0.985-1.828C54.494,41.373,54.289,40.773,53.793,40.531z"/>
		<path style="fill:#7383BF;" d="M55.57,34.813c-0.539-0.125-1.074,0.213-1.197,0.751c-0.144,0.628-0.312,1.253-0.499,1.858
			c-0.164,0.527,0.132,1.087,0.659,1.251c0.099,0.031,0.198,0.045,0.296,0.045c0.427,0,0.822-0.275,0.955-0.705
			c0.202-0.653,0.384-1.327,0.538-2.003C56.445,35.472,56.109,34.936,55.57,34.813z"/>
		<path style="fill:#7383BF;" d="M45.208,49.836c-0.507,0.389-1.034,0.763-1.568,1.112c-0.462,0.302-0.593,0.922-0.29,1.384
			c0.191,0.293,0.512,0.453,0.838,0.453c0.188,0,0.377-0.053,0.546-0.163c0.576-0.376,1.146-0.78,1.693-1.201
			c0.438-0.336,0.521-0.964,0.184-1.402C46.274,49.583,45.648,49.499,45.208,49.836z"/>
		<path style="fill:#7383BF;" d="M5.463,34.786c-0.121-0.626-0.219-1.265-0.292-1.899c-0.063-0.549-0.566-0.947-1.106-0.88
			c-0.549,0.063-0.943,0.559-0.88,1.107c0.078,0.685,0.185,1.375,0.315,2.052c0.092,0.478,0.511,0.81,0.98,0.81
			c0.063,0,0.127-0.006,0.191-0.018C5.214,35.853,5.568,35.328,5.463,34.786z"/>
		<path style="fill:#7383BF;" d="M7.207,40.271c-0.264-0.586-0.507-1.186-0.723-1.783c-0.188-0.52-0.762-0.787-1.28-0.601
			c-0.52,0.188-0.788,0.761-0.601,1.28c0.233,0.645,0.495,1.292,0.779,1.924c0.167,0.371,0.531,0.59,0.913,0.59
			c0.137,0,0.276-0.029,0.409-0.088C7.209,41.367,7.434,40.775,7.207,40.271z"/>
		<path style="fill:#7383BF;" d="M19.012,52.456c-0.574-0.282-1.144-0.589-1.692-0.913c-0.476-0.282-1.089-0.123-1.369,0.354
			c-0.28,0.476-0.122,1.089,0.354,1.369c0.593,0.349,1.207,0.681,1.827,0.985c0.142,0.07,0.292,0.103,0.439,0.103
			c0.369,0,0.725-0.205,0.898-0.559C19.712,53.298,19.508,52.699,19.012,52.456z"/>
		<path style="fill:#7383BF;" d="M24.435,54.372c-0.623-0.142-1.248-0.309-1.855-0.498c-0.53-0.166-1.089,0.132-1.252,0.659
			c-0.164,0.527,0.131,1.088,0.658,1.251c0.658,0.204,1.333,0.385,2.006,0.538c0.074,0.017,0.149,0.025,0.223,0.025
			c0.456,0,0.869-0.314,0.975-0.778C25.311,55.03,24.973,54.494,24.435,54.372z"/>
		<path style="fill:#7383BF;" d="M12.73,48.069c-0.4-0.382-1.033-0.368-1.414,0.031c-0.382,0.399-0.367,1.032,0.031,1.414
			c0.499,0.477,1.022,0.94,1.555,1.376c0.187,0.152,0.41,0.226,0.633,0.226c0.29,0,0.577-0.125,0.774-0.367
			c0.351-0.427,0.287-1.057-0.14-1.407C13.677,48.939,13.192,48.511,12.73,48.069z"/>
		<path style="fill:#7383BF;" d="M9.053,43.64c-0.302-0.462-0.921-0.592-1.384-0.291c-0.463,0.302-0.593,0.922-0.29,1.384
			c0.376,0.576,0.779,1.146,1.2,1.693c0.196,0.256,0.493,0.391,0.794,0.391c0.212,0,0.426-0.067,0.607-0.207
			c0.438-0.336,0.521-0.964,0.185-1.402C9.776,44.701,9.401,44.173,9.053,43.64z"/>
	</g>
	<g>
		<rect x="1" y="27" style="fill:#434C6D;" width="6" height="6"/>
		<path style="fill:#434C6D;" d="M8,34H0v-8h8V34z M2,32h4v-4H2V32z"/>
	</g>
	<g>
		<rect x="53" y="27" style="fill:#434C6D;" width="6" height="6"/>
		<path style="fill:#434C6D;" d="M60,34h-8v-8h8V34z M54,32h4v-4h-4V32z"/>
	</g>
	<g>
		<rect x="27" y="53" style="fill:#434C6D;" width="6" height="6"/>
		<path style="fill:#434C6D;" d="M34,60h-8v-8h8V60z M28,58h4v-4h-4V58z"/>
	</g>
	<g>
		<rect x="27" y="1" style="fill:#434C6D;" width="6" height="6"/>
		<path style="fill:#434C6D;" d="M34,8h-8V0h8V8z M28,6h4V2h-4V6z"/>
	</g>
</g>
<g>
</g>
<g>
</g>
<g>
</g>
<g>
</g>
<g>
</g>
<g>
</g>
<g>
</g>
<g>
</g>
<g>
</g>
<g>
</g>
<g>
</g>
<g>
</g>
<g>
</g>
<g>
</g>
<g>
</g>
</svg>
